<svg xmlns="http://www.w3.org/2000/svg" version="1.1" xmlns:xlink="http://www.w3.org/1999/xlink" xmlns:svgjs="http://svgjs.com/svgjs" width="1440" height="560" preserveAspectRatio="none" viewBox="0 0 1440 560"><g mask="url(&quot;#SvgjsMask1002&quot;)" fill="none"><rect width="1440" height="560" x="0" y="0" fill="rgba(11, 21, 60, 1)"></rect><path d="M599.99 576.16C703.13 558.4 655.47 314.21 917.87 303.74 1180.27 293.27 1389.25 137.15 1553.64 135.74" stroke="rgba(92, 236, 191, 0.58)" stroke-width="2"></path><path d="M635.66 654.11C774.34 635.48 854.08 315.45 1080.67 314.67 1307.27 313.89 1406.8 479.9 1525.69 482.67" stroke="rgba(92, 236, 191, 0.58)" stroke-width="2"></path><path d="M443.79 661.5C608.69 654.96 715.95 396.78 1043.31 385.24 1370.67 373.7 1480.33 138.29 1642.83 133.24" stroke="rgba(92, 236, 191, 0.58)" stroke-width="2"></path><path d="M708.94 638.66C858.99 618.86 947.54 273.77 1191.7 273.35 1435.86 272.93 1542.09 486.75 1674.46 491.75" stroke="rgba(92, 236, 191, 0.58)" stroke-width="2"></path><path d="M672.82 630.89C829.57 600.5 871.86 221.81 1145.63 201.51 1419.4 181.21 1495.94 73.86 1618.44 72.71" stroke="rgba(92, 236, 191, 0.58)" stroke-width="2"></path></g><defs><mask id="SvgjsMask1002"><rect width="1440" height="560" fill="#ffffff"></rect></mask></defs></svg>