<svg xmlns="http://www.w3.org/2000/svg" version="1.1" xmlns:xlink="http://www.w3.org/1999/xlink" xmlns:svgjs="http://svgjs.com/svgjs" width="1440" height="560" preserveAspectRatio="none" viewBox="0 0 1440 560"><g mask="url(&quot;#SvgjsMask1002&quot;)" fill="none"><rect width="1440" height="560" x="0" y="0" fill="rgba(11, 21, 60, 1)"></rect><path d="M0 42.86C30.38 4.39 54.47 17.16 110.53 0C124.47 -4.27 125.26 0 140 0C154 0 154.53 -3.42 168 0C224.53 14.36 226.99 35.56 280 35.56C306.82 35.56 300.24 6.96 327.66 0C370.24 -10.82 373.83 0 420 0C487.82 0 555.63 -24.26 555.63 0C555.63 31.38 484.96 52.98 420 111.28C406.96 122.98 399.64 127.51 399.64 140C399.64 148.7 408.28 150.46 420 153.66C488.46 172.34 497.98 188.73 560 183.75C582.98 181.9 586.8 165.23 590 140C598.46 73.35 553.31 38.2 583.33 0C608.31 -31.8 641.66 0 700 0C770 0 770 0 840 0C910 0 910 0 980 0C1038.55 0 1069.77 -31.88 1097.09 0C1129.77 38.12 1092.17 71.08 1100 140C1103.62 171.88 1110.12 201.6 1120 201.6C1129.86 201.6 1132.21 171.43 1139.49 140C1155.55 70.63 1130.25 42.31 1166.67 0C1190.5 -27.69 1213.34 0 1260 0C1330 0 1330 0 1400 0C1470 0 1501.97 -31.97 1540 0C1571.97 26.87 1550.9 64.15 1540 117.68C1536.64 134.15 1511.48 124.93 1511.48 140C1511.48 172.75 1532.28 175.44 1540 213.33C1546.54 245.44 1540 246.66 1540 280C1540 350 1540 350 1540 420C1540 451.62 1560.44 464.88 1540 483.23C1490.44 527.73 1468.41 512.02 1400 545.71C1390.46 550.41 1394.38 558.95 1384.09 560C1324.38 566.09 1322.05 560 1260 560C1214.5 560 1169 580.02 1169 560C1169 530.38 1214.5 510.37 1260 460.73C1278.67 440.37 1297.33 442.85 1297.33 420C1297.33 386.36 1292.48 358.42 1260 347.74C1203.82 329.26 1187.97 345.83 1120 361.67C1047.97 378.46 1052.19 400.97 980 413C912.19 424.3 905.9 405.11 840 408.33C834.31 408.61 836.82 414.37 836.82 420C836.82 423 837.99 423.08 840 425.6C893.78 493.08 948.39 518.72 948.39 560C948.39 585.92 894.19 560 840 560C770 560 770 560 700 560C630 560 630 560 560 560C490 560 490 560 420 560C361.66 560 325 591.63 303.33 560C277.04 521.63 331.25 486.68 324.07 420C319.58 378.29 300.46 343.23 280 343.23C260.4 343.23 248.85 379.17 243.94 420C235.82 487.56 282.63 521.37 253.95 560C230.66 591.37 196.98 560 140 560C70 560 35 595 0 560C-35 525 0 490 0 420C0 350 0 350 0 280C0 210 0 210 0 140C0 91.43 -24.89 74.39 0 42.86" stroke="rgba(92, 236, 191, 0.58)" stroke-width="2"></path><path d="M840 95.56C822.07 95.56 802.67 114.89 802.67 140C802.67 182.27 822.37 230.32 840 230.32C857.32 230.32 872.56 182.81 872.56 140C872.56 115.43 857.02 95.56 840 95.56" stroke="rgba(92, 236, 191, 0.58)" stroke-width="2"></path><path d="M0 114.29C59.97 76.03 68.12 56.64 140 50.69C208.12 45.05 215.11 61.54 280 91.11C313.11 106.2 306.35 117.71 336 140C376.35 170.33 375.33 173.07 420 196.34C487.33 231.41 502.94 271.28 560 256.67C612.94 243.11 599.53 198.01 640 140C669.53 97.67 670.68 56 700 56C728.68 56 740.89 93.26 756 140C777.1 205.26 772.09 209.96 772.41 280C772.73 349.96 742.23 354.69 757.27 420C774.47 494.69 852.37 522.16 836.89 560C823.73 592.16 768.44 560 700 560C630 560 630 560 560 560C490 560 490 560 420 560C398.13 560 379.94 576.62 376.25 560C364.39 506.62 405.24 484.86 388.89 420C369.95 344.86 346.7 350.33 305.67 280C292.25 257 295.64 233.33 280 233.33C261.41 233.33 250.6 251.96 237.22 280C206.06 345.3 207.43 348.48 190.91 420C175.1 488.48 193.25 503.12 172.56 560C167.79 573.12 156.28 560 140 560C70 560 35 595 0 560C-35 525 0 490 0 420C0 350 0 350 0 280C0 210 0 210 0 140C0 127.14 -10.03 120.69 0 114.29" stroke="rgba(92, 236, 191, 0.58)" stroke-width="2"></path><path d="M420 21.54C410.03 21.54 402.13 6.57 402.13 0C402.13 -4.2 411.07 0 420 0C433.13 0 446.25 -4.7 446.25 0C446.25 6.07 432.09 21.54 420 21.54" stroke="rgba(92, 236, 191, 0.58)" stroke-width="2"></path><path d="M840 40C813.16 13.08 773.68 10.77 773.68 0C773.68 -9.23 806.84 0 840 0C910 0 910 0 980 0C1006.72 0 1023.23 -19.18 1033.45 0C1060.51 50.82 1041.93 70.37 1054.55 140C1067.3 210.37 1103.85 223.38 1084.19 280C1066.58 330.72 1031.49 354.67 980 354.67C930.7 354.67 898 329.51 882.61 280C864.63 222.18 924.68 204.34 913.26 140C903.38 84.34 882.95 83.08 840 40" stroke="rgba(92, 236, 191, 0.58)" stroke-width="2"></path><path d="M1183.8 140C1183.8 80.31 1219.48 77.78 1260 19.6C1268.23 7.78 1267.58 1.92 1281.3 0C1337.58 -7.88 1340.65 0 1400 0C1470 0 1492.65 -22.65 1540 0C1562.65 10.83 1556.85 41.69 1540 66.96C1510.18 111.69 1455.08 93.07 1446.67 140C1435.99 199.59 1490.96 207.63 1501.82 280C1511.96 347.63 1517.94 364.15 1488.67 420C1467.03 461.29 1439.72 474.29 1400 474.29C1373.22 474.29 1373.07 450.18 1355.67 420C1317.07 353.04 1326.34 346.7 1288 280C1278.51 263.49 1271.44 268.96 1260 253.58C1219.34 198.96 1183.8 197.3 1183.8 140" stroke="rgba(92, 236, 191, 0.58)" stroke-width="2"></path><path d="M1227.33 560C1227.33 549.37 1242.29 524.36 1260 524.36C1280.9 524.36 1304.55 549.99 1304.55 560C1304.55 567.81 1282.28 560 1260 560C1243.66 560 1227.33 567.19 1227.33 560" stroke="rgba(92, 236, 191, 0.58)" stroke-width="2"></path><path d="M80 140C80 114.29 108.57 111.03 140 111.03C194.57 111.03 252 106.87 252 140C252 191.35 186.5 280 140 280C100.5 280 80 198.77 80 140" stroke="rgba(92, 236, 191, 0.58)" stroke-width="2"></path><path d="M690 140C690 131.96 695.11 126 700 126C704.78 126 709.33 132.08 709.33 140C709.33 162.41 704.83 186.67 700 186.67C695.16 186.67 690 162.3 690 140" stroke="rgba(92, 236, 191, 0.58)" stroke-width="2"></path><path d="M953.95 140C958.75 83.2 966.26 28 980 28C993.83 28 1003.94 83.01 1009.09 140C1015.33 209.01 1014.91 214.87 1002.79 280C1000.37 293.03 991.26 296.33 980 296.33C969.22 296.33 960.79 292.57 958.7 280C947.77 214.4 948.1 209.2 953.95 140" stroke="rgba(92, 236, 191, 0.58)" stroke-width="2"></path><path d="M1228.1 140C1228.1 115.01 1237.04 89.6 1260 89.6C1303.39 89.6 1360.8 115.38 1360.8 140C1360.8 164.35 1303.83 187.55 1260 187.55C1237.48 187.55 1228.1 163.99 1228.1 140" stroke="rgba(92, 236, 191, 0.58)" stroke-width="2"></path><path d="M1400 93.33C1364.3 90.16 1357.39 32.97 1357.39 0C1357.39 -13.69 1378.7 0 1400 0C1470 0 1477.27 -7.27 1540 0C1547.27 0.84 1546.45 11.93 1540 16.23C1476.45 58.59 1455.61 98.27 1400 93.33" stroke="rgba(92, 236, 191, 0.58)" stroke-width="2"></path><path d="M0 264.44C63.04 264.44 140 272.22 140 280C140 287.78 63.04 295.56 0 295.56C-6.96 295.56 0 287.78 0 280C0 272.22 -6.96 264.44 0 264.44" stroke="rgba(92, 236, 191, 0.58)" stroke-width="2"></path><path d="M364 280C364 254.03 390.27 239.02 420 239.02C459.25 239.02 470.9 248.91 501.95 280C540.9 318.99 522.45 338.12 560 379.17C586.48 408.12 594.67 400.18 630 420C664.67 439.44 674.03 429.53 700 457.69C738.59 499.53 759.11 525.9 759.11 560C759.11 577.06 729.56 560 700 560C630 560 630 560 560 560C511.88 560 473.41 587.61 463.75 560C448.91 517.61 523.87 475.64 511 420C501.99 381.05 456.18 405.27 420 370.81C382.68 335.27 364 319.93 364 280" stroke="rgba(92, 236, 191, 0.58)" stroke-width="2"></path><path d="M1358 280C1358 232.1 1379.81 184.55 1400 184.55C1419.9 184.55 1438.18 232.12 1438.18 280C1438.18 329.85 1419.91 380 1400 380C1379.82 380 1358 329.82 1358 280" stroke="rgba(92, 236, 191, 0.58)" stroke-width="2"></path></g><defs><mask id="SvgjsMask1002"><rect width="1440" height="560" fill="#ffffff"></rect></mask></defs></svg>