<svg xmlns="http://www.w3.org/2000/svg" version="1.1" xmlns:xlink="http://www.w3.org/1999/xlink" xmlns:svgjs="http://svgjs.com/svgjs" width="1440" height="560" preserveAspectRatio="none" viewBox="0 0 1440 560"><g mask="url(&quot;#SvgjsMask1003&quot;)" fill="none"><rect width="1440" height="560" x="0" y="0" fill="rgba(11, 21, 60, 1)"></rect><path d="M1681.59 282.78C1499.15 277.29 1276.39 8.47 1007.32 2.78 738.24-2.91 757.33-85.25 670.18-85.99" stroke="rgba(92, 236, 191, 0.58)" stroke-width="2"></path><path d="M1512.62 132.72C1364.28 139.77 1185.5 397.28 980.06 395.92 774.62 394.56 828.57 5.08 713.78-60.15" stroke="rgba(92, 236, 191, 0.58)" stroke-width="2"></path><path d="M1516.72 116.52C1377.96 118.32 1253.27 279.16 985.91 278.92 718.55 278.68 606.21-3.23 455.1-12.62" stroke="rgba(92, 236, 191, 0.58)" stroke-width="2"></path><path d="M1454.84 107.28C1336.62 107.09 1221.01 37.28 987.19 37.28 753.36 37.28 755.85 107.64 519.53 107.28 283.22 106.92 179.63-94.94 51.88-99.48" stroke="rgba(92, 236, 191, 0.58)" stroke-width="2"></path><path d="M1532.34 242.83C1362.46 236.83 1230.61-29.31 910.2-31.57 589.8-33.83 443.82-64.39 288.07-64.4" stroke="rgba(92, 236, 191, 0.58)" stroke-width="2"></path></g><defs><mask id="SvgjsMask1003"><rect width="1440" height="560" fill="#ffffff"></rect></mask></defs></svg>