<svg xmlns="http://www.w3.org/2000/svg" version="1.1" xmlns:xlink="http://www.w3.org/1999/xlink" xmlns:svgjs="http://svgjs.com/svgjs" width="1440" height="560" preserveAspectRatio="none" viewBox="0 0 1440 560"><g mask="url(&quot;#SvgjsMask1001&quot;)" fill="none"><rect width="1440" height="560" x="0" y="0" fill="rgba(11, 21, 60, 1)"></rect><path d="M0,511.431C112.021,510.631,225.126,553.635,329.263,512.344C443.26,467.143,550.908,386.374,599.432,273.752C647.667,161.801,634.271,27.776,586.333,-84.302C543.262,-185.002,416.12,-216.205,351.917,-304.938C278.068,-407.002,304.431,-591.137,186.863,-636.398C72.285,-680.507,-29.464,-535.787,-145.799,-496.545C-255.716,-459.468,-386.006,-485.545,-476.287,-412.705C-572.166,-335.348,-626.324,-214.491,-646.099,-92.895C-666.075,29.937,-643.934,157.415,-587.004,268.076C-531.566,375.837,-444.246,470.658,-332.3,517.068C-227.847,560.371,-113.07,512.239,0,511.431" fill="#091130"></path><path d="M1440 1096.284C1561.297 1124.571 1695.423 1187.2350000000001 1804.749 1127.56 1913.847 1068.01 1934.6770000000001 921.8879999999999 1974.932 804.295 2011.634 697.08 2030.046 588.766 2027.9769999999999 475.462 2025.655 348.31100000000004 2054.42 195.08100000000002 1962.2060000000001 107.50599999999997 1868.968 18.95799999999997 1712.351 88.49700000000001 1587.619 57.257000000000005 1470.176 27.84299999999996 1375.574-81.95500000000004 1255.138-69.58399999999995 1129.065-56.634000000000015 1004.271 16.724000000000046 936.937 124.09300000000002 871.756 228.029 898.986 361.21500000000003 908.255 483.547 915.82 583.389 938.914 678.946 985.687 767.4780000000001 1030.384 852.081 1092.819 923.512 1170.3319999999999 979.6120000000001 1251.314 1038.222 1342.646 1073.5810000000001 1440 1096.284" fill="#0d1948"></path></g><defs><mask id="SvgjsMask1001"><rect width="1440" height="560" fill="#ffffff"></rect></mask></defs></svg>