<svg xmlns="http://www.w3.org/2000/svg" version="1.1" xmlns:xlink="http://www.w3.org/1999/xlink" xmlns:svgjs="http://svgjs.com/svgjs" width="1440" height="560" preserveAspectRatio="none" viewBox="0 0 1440 560"><g mask="url(&quot;#SvgjsMask1005&quot;)" fill="none"><path d="M1599.42 373.23C1450.32 374.48 1328.1 530.23 1022.48 524.43 716.85 518.63 641.2 11.36 445.53-31.26" stroke="rgba(92, 236, 191, 0.58)" stroke-width="2"></path><path d="M1620.19 120.27C1470.66 125.5 1348.1 361.29 1072.28 361.07 796.45 360.85 688.67 8.68 524.36-7.99" stroke="rgba(92, 236, 191, 0.58)" stroke-width="2"></path><path d="M1568.95 428.31C1394.96 422.96 1273.23 169.4 926.63 159.51 580.02 149.62 456.93-90.05 284.3-94.61" stroke="rgba(92, 236, 191, 0.58)" stroke-width="2"></path><path d="M1547.67 135.95C1430.11 137.04 1325.58 260.14 1093.82 259.15 862.06 258.16 776.84-38.02 639.97-52.54" stroke="rgba(92, 236, 191, 0.58)" stroke-width="2"></path><path d="M1690.17 94.16C1531.58 98.78 1327.28 335.74 1103 334.96 878.71 334.18 925.87-27.45 809.41-76.5" stroke="rgba(92, 236, 191, 0.58)" stroke-width="2"></path></g><defs><mask id="SvgjsMask1005"><rect width="1440" height="560" fill="#ffffff"></rect></mask></defs></svg>