<svg xmlns="http://www.w3.org/2000/svg" version="1.1" xmlns:xlink="http://www.w3.org/1999/xlink" xmlns:svgjs="http://svgjs.com/svgjs" width="1440" height="560" preserveAspectRatio="none" viewBox="0 0 1440 560"><g mask="url(&quot;#SvgjsMask1051&quot;)" fill="none"><path d="M498.43 -29.18L604.09 31.82L604.09 153.82L498.43 214.82L392.77 153.82L392.77 31.82zM604.09 153.82L709.75 214.82L709.75 336.82L604.09 397.82L498.43 336.82L498.43 214.82zM709.75 -29.18L815.41 31.82L815.41 153.82L709.75 214.82L604.09 153.82L604.09 31.82zM1238.04 153.82L1343.7 214.82L1343.7 336.82L1238.04 397.82L1132.38 336.82L1132.38 214.82zM1132.38 336.82L1238.04 397.82L1238.04 519.82L1132.38 580.82L1026.72 519.82L1026.72 397.82z" stroke="rgba(11, 21, 60, 1)" stroke-width="2"></path><path d="M486.23 -29.18 a12.2 12.2 0 1 0 24.4 0 a12.2 12.2 0 1 0 -24.4 0zM591.89 31.82 a12.2 12.2 0 1 0 24.4 0 a12.2 12.2 0 1 0 -24.4 0zM591.89 153.82 a12.2 12.2 0 1 0 24.4 0 a12.2 12.2 0 1 0 -24.4 0zM486.23 214.82 a12.2 12.2 0 1 0 24.4 0 a12.2 12.2 0 1 0 -24.4 0zM380.57 153.82 a12.2 12.2 0 1 0 24.4 0 a12.2 12.2 0 1 0 -24.4 0zM380.57 31.82 a12.2 12.2 0 1 0 24.4 0 a12.2 12.2 0 1 0 -24.4 0zM697.55 214.82 a12.2 12.2 0 1 0 24.4 0 a12.2 12.2 0 1 0 -24.4 0zM697.55 336.82 a12.2 12.2 0 1 0 24.4 0 a12.2 12.2 0 1 0 -24.4 0zM591.89 397.82 a12.2 12.2 0 1 0 24.4 0 a12.2 12.2 0 1 0 -24.4 0zM486.23 336.82 a12.2 12.2 0 1 0 24.4 0 a12.2 12.2 0 1 0 -24.4 0zM697.55 -29.18 a12.2 12.2 0 1 0 24.4 0 a12.2 12.2 0 1 0 -24.4 0zM803.21 31.82 a12.2 12.2 0 1 0 24.4 0 a12.2 12.2 0 1 0 -24.4 0zM803.21 153.82 a12.2 12.2 0 1 0 24.4 0 a12.2 12.2 0 1 0 -24.4 0zM1225.84 153.82 a12.2 12.2 0 1 0 24.4 0 a12.2 12.2 0 1 0 -24.4 0zM1331.5 214.82 a12.2 12.2 0 1 0 24.4 0 a12.2 12.2 0 1 0 -24.4 0zM1331.5 336.82 a12.2 12.2 0 1 0 24.4 0 a12.2 12.2 0 1 0 -24.4 0zM1225.84 397.82 a12.2 12.2 0 1 0 24.4 0 a12.2 12.2 0 1 0 -24.4 0zM1120.18 336.82 a12.2 12.2 0 1 0 24.4 0 a12.2 12.2 0 1 0 -24.4 0zM1120.18 214.82 a12.2 12.2 0 1 0 24.4 0 a12.2 12.2 0 1 0 -24.4 0zM1225.84 519.82 a12.2 12.2 0 1 0 24.4 0 a12.2 12.2 0 1 0 -24.4 0zM1120.18 580.82 a12.2 12.2 0 1 0 24.4 0 a12.2 12.2 0 1 0 -24.4 0zM1014.52 519.82 a12.2 12.2 0 1 0 24.4 0 a12.2 12.2 0 1 0 -24.4 0zM1014.52 397.82 a12.2 12.2 0 1 0 24.4 0 a12.2 12.2 0 1 0 -24.4 0z" fill="rgba(11, 21, 60, 1)"></path><path d="M486.84 469.31L581.24 523.81L581.24 632.81L486.84 687.31L392.44 632.81L392.44 523.81zM675.64 469.31L770.04 523.81L770.04 632.81L675.64 687.31L581.24 632.81L581.24 523.81zM1242.03 142.31L1336.43 196.81L1336.43 305.81L1242.03 360.31L1147.63 305.81L1147.63 196.81zM1242.03 469.31L1336.43 523.81L1336.43 632.81L1242.03 687.31L1147.63 632.81L1147.63 523.81zM1336.43 305.81L1430.83 360.31L1430.83 469.31L1336.43 523.81L1242.03 469.31L1242.03 360.31z" stroke="rgba(92, 236, 191, 0.71)" stroke-width="2"></path></g><defs><mask id="SvgjsMask1051"><rect width="1440" height="560" fill="#ffffff"></rect></mask></defs></svg>