<svg xmlns="http://www.w3.org/2000/svg" version="1.1" xmlns:xlink="http://www.w3.org/1999/xlink" xmlns:svgjs="http://svgjs.com/svgjs" width="1440" height="560" preserveAspectRatio="none" viewBox="0 0 1440 560"><g mask="url(&quot;#SvgjsMask1006&quot;)" fill="none"><path d="M-85.19 353.01L-85.19 353.01" stroke="rgba(11, 21, 60, 1)" stroke-width="1.5"></path><path d="M-85.19 353.01L-75 492.72" stroke="rgba(11, 21, 60, 1)" stroke-width="1.5"></path><path d="M-85.19 353.01L86.66 365.07" stroke="rgba(11, 21, 60, 1)" stroke-width="1.5"></path><path d="M-85.19 353.01L97.49 506.73" stroke="rgba(11, 21, 60, 1)" stroke-width="1.5"></path><path d="M-85.19 353.01L188.23 399.09" stroke="rgba(11, 21, 60, 1)" stroke-width="1.5"></path><path d="M-85.19 353.01L-76.47 681.29" stroke="rgba(11, 21, 60, 1)" stroke-width="1.5"></path><path d="M-75 492.72L-75 492.72" stroke="rgba(11, 21, 60, 1)" stroke-width="1.5"></path><path d="M-75 492.72L97.49 506.73" stroke="rgba(11, 21, 60, 1)" stroke-width="1.5"></path><path d="M-75 492.72L-76.47 681.29" stroke="rgba(11, 21, 60, 1)" stroke-width="1.5"></path><path d="M-76.47 681.29L-76.47 681.29" stroke="rgba(11, 21, 60, 1)" stroke-width="1.5"></path><path d="M-76.47 681.29L72.72 651.19" stroke="rgba(11, 21, 60, 1)" stroke-width="1.5"></path><path d="M-76.47 681.29L97.49 506.73" stroke="rgba(11, 21, 60, 1)" stroke-width="1.5"></path><path d="M86.66 365.07L86.66 365.07" stroke="rgba(11, 21, 60, 1)" stroke-width="1.5"></path><path d="M86.66 365.07L188.23 399.09" stroke="rgba(11, 21, 60, 1)" stroke-width="1.5"></path><path d="M86.66 365.07L97.49 506.73" stroke="rgba(11, 21, 60, 1)" stroke-width="1.5"></path><path d="M86.66 365.07L234.28 500.73" stroke="rgba(11, 21, 60, 1)" stroke-width="1.5"></path><path d="M97.49 506.73L97.49 506.73" stroke="rgba(11, 21, 60, 1)" stroke-width="1.5"></path><path d="M97.49 506.73L234.28 500.73" stroke="rgba(11, 21, 60, 1)" stroke-width="1.5"></path><path d="M97.49 506.73L188.23 399.09" stroke="rgba(11, 21, 60, 1)" stroke-width="1.5"></path><path d="M97.49 506.73L72.72 651.19" stroke="rgba(11, 21, 60, 1)" stroke-width="1.5"></path><path d="M72.72 651.19L72.72 651.19" stroke="rgba(11, 21, 60, 1)" stroke-width="1.5"></path><path d="M72.72 651.19L254.88 699.07" stroke="rgba(11, 21, 60, 1)" stroke-width="1.5"></path><path d="M72.72 651.19L-75 492.72" stroke="rgba(11, 21, 60, 1)" stroke-width="1.5"></path><path d="M72.72 651.19L234.28 500.73" stroke="rgba(11, 21, 60, 1)" stroke-width="1.5"></path><path d="M72.72 651.19L188.23 399.09" stroke="rgba(11, 21, 60, 1)" stroke-width="1.5"></path><path d="M188.23 399.09L188.23 399.09" stroke="rgba(11, 21, 60, 1)" stroke-width="1.5"></path><path d="M188.23 399.09L234.28 500.73" stroke="rgba(11, 21, 60, 1)" stroke-width="1.5"></path><path d="M234.28 500.73L234.28 500.73" stroke="rgba(11, 21, 60, 1)" stroke-width="1.5"></path><path d="M234.28 500.73L347.47 514.91" stroke="rgba(11, 21, 60, 1)" stroke-width="1.5"></path><path d="M234.28 500.73L375.93 405.03" stroke="rgba(11, 21, 60, 1)" stroke-width="1.5"></path><path d="M234.28 500.73L254.88 699.07" stroke="rgba(11, 21, 60, 1)" stroke-width="1.5"></path><path d="M254.88 699.07L254.88 699.07" stroke="rgba(11, 21, 60, 1)" stroke-width="1.5"></path><path d="M254.88 699.07L354.53 711.67" stroke="rgba(11, 21, 60, 1)" stroke-width="1.5"></path><path d="M375.93 405.03L375.93 405.03" stroke="rgba(11, 21, 60, 1)" stroke-width="1.5"></path><path d="M375.93 405.03L347.47 514.91" stroke="rgba(11, 21, 60, 1)" stroke-width="1.5"></path><path d="M347.47 514.91L347.47 514.91" stroke="rgba(11, 21, 60, 1)" stroke-width="1.5"></path><path d="M347.47 514.91L496.18 527.75" stroke="rgba(11, 21, 60, 1)" stroke-width="1.5"></path><path d="M347.47 514.91L354.53 711.67" stroke="rgba(11, 21, 60, 1)" stroke-width="1.5"></path><path d="M347.47 514.91L188.23 399.09" stroke="rgba(11, 21, 60, 1)" stroke-width="1.5"></path><path d="M354.53 711.67L354.53 711.67" stroke="rgba(11, 21, 60, 1)" stroke-width="1.5"></path><path d="M354.53 711.67L496.18 527.75" stroke="rgba(11, 21, 60, 1)" stroke-width="1.5"></path><path d="M354.53 711.67L234.28 500.73" stroke="rgba(11, 21, 60, 1)" stroke-width="1.5"></path><path d="M354.53 711.67L72.72 651.19" stroke="rgba(11, 21, 60, 1)" stroke-width="1.5"></path><path d="M548.63 395.81L548.63 395.81" stroke="rgba(11, 21, 60, 1)" stroke-width="1.5"></path><path d="M548.63 395.81L496.18 527.75" stroke="rgba(11, 21, 60, 1)" stroke-width="1.5"></path><path d="M548.63 395.81L647.07 509.35" stroke="rgba(11, 21, 60, 1)" stroke-width="1.5"></path><path d="M548.63 395.81L699.34 356.39" stroke="rgba(11, 21, 60, 1)" stroke-width="1.5"></path><path d="M548.63 395.81L375.93 405.03" stroke="rgba(11, 21, 60, 1)" stroke-width="1.5"></path><path d="M548.63 395.81L347.47 514.91" stroke="rgba(11, 21, 60, 1)" stroke-width="1.5"></path><path d="M496.18 527.75L496.18 527.75" stroke="rgba(11, 21, 60, 1)" stroke-width="1.5"></path><path d="M496.18 527.75L647.07 509.35" stroke="rgba(11, 21, 60, 1)" stroke-width="1.5"></path><path d="M496.18 527.75L375.93 405.03" stroke="rgba(11, 21, 60, 1)" stroke-width="1.5"></path><path d="M496.18 527.75L657.93 699.14" stroke="rgba(11, 21, 60, 1)" stroke-width="1.5"></path><path d="M699.34 356.39L699.34 356.39" stroke="rgba(11, 21, 60, 1)" stroke-width="1.5"></path><path d="M699.34 356.39L647.07 509.35" stroke="rgba(11, 21, 60, 1)" stroke-width="1.5"></path><path d="M647.07 509.35L647.07 509.35" stroke="rgba(11, 21, 60, 1)" stroke-width="1.5"></path><path d="M647.07 509.35L802.01 499.38" stroke="rgba(11, 21, 60, 1)" stroke-width="1.5"></path><path d="M657.93 699.14L657.93 699.14" stroke="rgba(11, 21, 60, 1)" stroke-width="1.5"></path><path d="M657.93 699.14L789.71 658.79" stroke="rgba(11, 21, 60, 1)" stroke-width="1.5"></path><path d="M657.93 699.14L647.07 509.35" stroke="rgba(11, 21, 60, 1)" stroke-width="1.5"></path><path d="M812.38 240.71L812.38 240.71" stroke="rgba(11, 21, 60, 1)" stroke-width="1.5"></path><path d="M812.38 240.71L969.54 231.64" stroke="rgba(11, 21, 60, 1)" stroke-width="1.5"></path><path d="M860.47 397.11L860.47 397.11" stroke="rgba(11, 21, 60, 1)" stroke-width="1.5"></path><path d="M860.47 397.11L802.01 499.38" stroke="rgba(11, 21, 60, 1)" stroke-width="1.5"></path><path d="M860.47 397.11L997.99 364.38" stroke="rgba(11, 21, 60, 1)" stroke-width="1.5"></path><path d="M860.47 397.11L812.38 240.71" stroke="rgba(11, 21, 60, 1)" stroke-width="1.5"></path><path d="M860.47 397.11L699.34 356.39" stroke="rgba(11, 21, 60, 1)" stroke-width="1.5"></path><path d="M802.01 499.38L802.01 499.38" stroke="rgba(11, 21, 60, 1)" stroke-width="1.5"></path><path d="M802.01 499.38L947.1 547.19" stroke="rgba(11, 21, 60, 1)" stroke-width="1.5"></path><path d="M802.01 499.38L789.71 658.79" stroke="rgba(11, 21, 60, 1)" stroke-width="1.5"></path><path d="M802.01 499.38L699.34 356.39" stroke="rgba(11, 21, 60, 1)" stroke-width="1.5"></path><path d="M802.01 499.38L997.99 364.38" stroke="rgba(11, 21, 60, 1)" stroke-width="1.5"></path><path d="M789.71 658.79L789.71 658.79" stroke="rgba(11, 21, 60, 1)" stroke-width="1.5"></path><path d="M1009.37 -100.7L1009.37 -100.7" stroke="rgba(11, 21, 60, 1)" stroke-width="1.5"></path><path d="M1009.37 -100.7L1122.95 -89.96" stroke="rgba(11, 21, 60, 1)" stroke-width="1.5"></path><path d="M1009.37 -100.7L958.03 52.11" stroke="rgba(11, 21, 60, 1)" stroke-width="1.5"></path><path d="M1009.37 -100.7L1130.06 82.69" stroke="rgba(11, 21, 60, 1)" stroke-width="1.5"></path><path d="M1009.37 -100.7L1286.43 -72.94" stroke="rgba(11, 21, 60, 1)" stroke-width="1.5"></path><path d="M958.03 52.11L958.03 52.11" stroke="rgba(11, 21, 60, 1)" stroke-width="1.5"></path><path d="M958.03 52.11L1130.06 82.69" stroke="rgba(11, 21, 60, 1)" stroke-width="1.5"></path><path d="M969.54 231.64L969.54 231.64" stroke="rgba(11, 21, 60, 1)" stroke-width="1.5"></path><path d="M969.54 231.64L997.99 364.38" stroke="rgba(11, 21, 60, 1)" stroke-width="1.5"></path><path d="M997.99 364.38L997.99 364.38" stroke="rgba(11, 21, 60, 1)" stroke-width="1.5"></path><path d="M997.99 364.38L1135.61 257.62" stroke="rgba(11, 21, 60, 1)" stroke-width="1.5"></path><path d="M997.99 364.38L947.1 547.19" stroke="rgba(11, 21, 60, 1)" stroke-width="1.5"></path><path d="M947.1 547.19L947.1 547.19" stroke="rgba(11, 21, 60, 1)" stroke-width="1.5"></path><path d="M947.1 547.19L971.36 689.81" stroke="rgba(11, 21, 60, 1)" stroke-width="1.5"></path><path d="M947.1 547.19L860.47 397.11" stroke="rgba(11, 21, 60, 1)" stroke-width="1.5"></path><path d="M971.36 689.81L971.36 689.81" stroke="rgba(11, 21, 60, 1)" stroke-width="1.5"></path><path d="M971.36 689.81L789.71 658.79" stroke="rgba(11, 21, 60, 1)" stroke-width="1.5"></path><path d="M971.36 689.81L1160.71 649.63" stroke="rgba(11, 21, 60, 1)" stroke-width="1.5"></path><path d="M971.36 689.81L1152.53 542.77" stroke="rgba(11, 21, 60, 1)" stroke-width="1.5"></path><path d="M971.36 689.81L802.01 499.38" stroke="rgba(11, 21, 60, 1)" stroke-width="1.5"></path><path d="M1122.95 -89.96L1122.95 -89.96" stroke="rgba(11, 21, 60, 1)" stroke-width="1.5"></path><path d="M1122.95 -89.96L1286.43 -72.94" stroke="rgba(11, 21, 60, 1)" stroke-width="1.5"></path><path d="M1122.95 -89.96L1130.06 82.69" stroke="rgba(11, 21, 60, 1)" stroke-width="1.5"></path><path d="M1130.06 82.69L1130.06 82.69" stroke="rgba(11, 21, 60, 1)" stroke-width="1.5"></path><path d="M1130.06 82.69L1257.02 76.95" stroke="rgba(11, 21, 60, 1)" stroke-width="1.5"></path><path d="M1135.61 257.62L1135.61 257.62" stroke="rgba(11, 21, 60, 1)" stroke-width="1.5"></path><path d="M1135.61 257.62L969.54 231.64" stroke="rgba(11, 21, 60, 1)" stroke-width="1.5"></path><path d="M1135.61 257.62L1299.56 210.69" stroke="rgba(11, 21, 60, 1)" stroke-width="1.5"></path><path d="M1135.61 257.62L1130.06 82.69" stroke="rgba(11, 21, 60, 1)" stroke-width="1.5"></path><path d="M1152.53 542.77L1152.53 542.77" stroke="rgba(11, 21, 60, 1)" stroke-width="1.5"></path><path d="M1152.53 542.77L1160.71 649.63" stroke="rgba(11, 21, 60, 1)" stroke-width="1.5"></path><path d="M1152.53 542.77L1283.04 521.29" stroke="rgba(11, 21, 60, 1)" stroke-width="1.5"></path><path d="M1152.53 542.77L1250.83 652.27" stroke="rgba(11, 21, 60, 1)" stroke-width="1.5"></path><path d="M1152.53 542.77L947.1 547.19" stroke="rgba(11, 21, 60, 1)" stroke-width="1.5"></path><path d="M1160.71 649.63L1160.71 649.63" stroke="rgba(11, 21, 60, 1)" stroke-width="1.5"></path><path d="M1160.71 649.63L1250.83 652.27" stroke="rgba(11, 21, 60, 1)" stroke-width="1.5"></path><path d="M1286.43 -72.94L1286.43 -72.94" stroke="rgba(11, 21, 60, 1)" stroke-width="1.5"></path><path d="M1286.43 -72.94L1257.02 76.95" stroke="rgba(11, 21, 60, 1)" stroke-width="1.5"></path><path d="M1286.43 -72.94L1453.19 -62.23" stroke="rgba(11, 21, 60, 1)" stroke-width="1.5"></path><path d="M1286.43 -72.94L1400.69 49.6" stroke="rgba(11, 21, 60, 1)" stroke-width="1.5"></path><path d="M1286.43 -72.94L1130.06 82.69" stroke="rgba(11, 21, 60, 1)" stroke-width="1.5"></path><path d="M1257.02 76.95L1257.02 76.95" stroke="rgba(11, 21, 60, 1)" stroke-width="1.5"></path><path d="M1257.02 76.95L1299.56 210.69" stroke="rgba(11, 21, 60, 1)" stroke-width="1.5"></path><path d="M1299.56 210.69L1299.56 210.69" stroke="rgba(11, 21, 60, 1)" stroke-width="1.5"></path><path d="M1299.56 210.69L1462.03 214.1" stroke="rgba(11, 21, 60, 1)" stroke-width="1.5"></path><path d="M1282.34 376.9L1282.34 376.9" stroke="rgba(11, 21, 60, 1)" stroke-width="1.5"></path><path d="M1282.34 376.9L1406.47 373.66" stroke="rgba(11, 21, 60, 1)" stroke-width="1.5"></path><path d="M1282.34 376.9L1283.04 521.29" stroke="rgba(11, 21, 60, 1)" stroke-width="1.5"></path><path d="M1283.04 521.29L1283.04 521.29" stroke="rgba(11, 21, 60, 1)" stroke-width="1.5"></path><path d="M1283.04 521.29L1388.02 496.65" stroke="rgba(11, 21, 60, 1)" stroke-width="1.5"></path><path d="M1283.04 521.29L1250.83 652.27" stroke="rgba(11, 21, 60, 1)" stroke-width="1.5"></path><path d="M1283.04 521.29L1160.71 649.63" stroke="rgba(11, 21, 60, 1)" stroke-width="1.5"></path><path d="M1283.04 521.29L1406.47 373.66" stroke="rgba(11, 21, 60, 1)" stroke-width="1.5"></path><path d="M1250.83 652.27L1250.83 652.27" stroke="rgba(11, 21, 60, 1)" stroke-width="1.5"></path><path d="M1250.83 652.27L1456.68 640.41" stroke="rgba(11, 21, 60, 1)" stroke-width="1.5"></path><path d="M1250.83 652.27L1388.02 496.65" stroke="rgba(11, 21, 60, 1)" stroke-width="1.5"></path><path d="M1250.83 652.27L1282.34 376.9" stroke="rgba(11, 21, 60, 1)" stroke-width="1.5"></path><path d="M1453.19 -62.23L1453.19 -62.23" stroke="rgba(11, 21, 60, 1)" stroke-width="1.5"></path><path d="M1453.19 -62.23L1400.69 49.6" stroke="rgba(11, 21, 60, 1)" stroke-width="1.5"></path><path d="M1453.19 -62.23L1588.09 -45.75" stroke="rgba(11, 21, 60, 1)" stroke-width="1.5"></path><path d="M1453.19 -62.23L1588.08 70.64" stroke="rgba(11, 21, 60, 1)" stroke-width="1.5"></path><path d="M1400.69 49.6L1400.69 49.6" stroke="rgba(11, 21, 60, 1)" stroke-width="1.5"></path><path d="M1400.69 49.6L1257.02 76.95" stroke="rgba(11, 21, 60, 1)" stroke-width="1.5"></path><path d="M1462.03 214.1L1462.03 214.1" stroke="rgba(11, 21, 60, 1)" stroke-width="1.5"></path><path d="M1462.03 214.1L1583.74 238.41" stroke="rgba(11, 21, 60, 1)" stroke-width="1.5"></path><path d="M1462.03 214.1L1406.47 373.66" stroke="rgba(11, 21, 60, 1)" stroke-width="1.5"></path><path d="M1462.03 214.1L1400.69 49.6" stroke="rgba(11, 21, 60, 1)" stroke-width="1.5"></path><path d="M1462.03 214.1L1588.08 70.64" stroke="rgba(11, 21, 60, 1)" stroke-width="1.5"></path><path d="M1462.03 214.1L1585.87 384.95" stroke="rgba(11, 21, 60, 1)" stroke-width="1.5"></path><path d="M1406.47 373.66L1406.47 373.66" stroke="rgba(11, 21, 60, 1)" stroke-width="1.5"></path><path d="M1406.47 373.66L1388.02 496.65" stroke="rgba(11, 21, 60, 1)" stroke-width="1.5"></path><path d="M1388.02 496.65L1388.02 496.65" stroke="rgba(11, 21, 60, 1)" stroke-width="1.5"></path><path d="M1388.02 496.65L1456.68 640.41" stroke="rgba(11, 21, 60, 1)" stroke-width="1.5"></path><path d="M1388.02 496.65L1282.34 376.9" stroke="rgba(11, 21, 60, 1)" stroke-width="1.5"></path><path d="M1456.68 640.41L1456.68 640.41" stroke="rgba(11, 21, 60, 1)" stroke-width="1.5"></path><path d="M1456.68 640.41L1540.17 643.33" stroke="rgba(11, 21, 60, 1)" stroke-width="1.5"></path><path d="M1456.68 640.41L1595 544.29" stroke="rgba(11, 21, 60, 1)" stroke-width="1.5"></path><path d="M1588.09 -45.75L1588.09 -45.75" stroke="rgba(11, 21, 60, 1)" stroke-width="1.5"></path><path d="M1588.09 -45.75L1588.08 70.64" stroke="rgba(11, 21, 60, 1)" stroke-width="1.5"></path><path d="M1588.08 70.64L1588.08 70.64" stroke="rgba(11, 21, 60, 1)" stroke-width="1.5"></path><path d="M1588.08 70.64L1583.74 238.41" stroke="rgba(11, 21, 60, 1)" stroke-width="1.5"></path><path d="M1588.08 70.64L1400.69 49.6" stroke="rgba(11, 21, 60, 1)" stroke-width="1.5"></path><path d="M1583.74 238.41L1583.74 238.41" stroke="rgba(11, 21, 60, 1)" stroke-width="1.5"></path><path d="M1583.74 238.41L1585.87 384.95" stroke="rgba(11, 21, 60, 1)" stroke-width="1.5"></path><path d="M1585.87 384.95L1585.87 384.95" stroke="rgba(11, 21, 60, 1)" stroke-width="1.5"></path><path d="M1585.87 384.95L1595 544.29" stroke="rgba(11, 21, 60, 1)" stroke-width="1.5"></path><path d="M1595 544.29L1595 544.29" stroke="rgba(11, 21, 60, 1)" stroke-width="1.5"></path><path d="M1595 544.29L1540.17 643.33" stroke="rgba(11, 21, 60, 1)" stroke-width="1.5"></path><path d="M1595 544.29L1388.02 496.65" stroke="rgba(11, 21, 60, 1)" stroke-width="1.5"></path><path d="M1595 544.29L1406.47 373.66" stroke="rgba(11, 21, 60, 1)" stroke-width="1.5"></path><path d="M1540.17 643.33L1540.17 643.33" stroke="rgba(11, 21, 60, 1)" stroke-width="1.5"></path><circle r="5" cx="-85.19" cy="353.01" fill="rgba(11, 21, 60, 1)"></circle><circle r="5" cx="-75" cy="492.72" fill="rgba(11, 21, 60, 1)"></circle><circle r="5" cx="-76.47" cy="681.29" fill="rgba(11, 21, 60, 1)"></circle><circle r="5" cx="86.66" cy="365.07" fill="rgba(11, 21, 60, 1)"></circle><circle r="5" cx="97.49" cy="506.73" fill="rgba(11, 21, 60, 1)"></circle><circle r="5" cx="72.72" cy="651.19" fill="rgba(11, 21, 60, 1)"></circle><circle r="5" cx="188.23" cy="399.09" fill="rgba(11, 21, 60, 1)"></circle><circle r="5" cx="234.28" cy="500.73" fill="rgba(11, 21, 60, 1)"></circle><circle r="5" cx="254.88" cy="699.07" fill="rgba(11, 21, 60, 1)"></circle><circle r="5" cx="375.93" cy="405.03" fill="rgba(11, 21, 60, 1)"></circle><circle r="5" cx="347.47" cy="514.91" fill="rgba(11, 21, 60, 1)"></circle><circle r="5" cx="354.53" cy="711.67" fill="rgba(11, 21, 60, 1)"></circle><circle r="5" cx="548.63" cy="395.81" fill="rgba(11, 21, 60, 1)"></circle><circle r="5" cx="496.18" cy="527.75" fill="rgba(11, 21, 60, 1)"></circle><circle r="5" cx="699.34" cy="356.39" fill="rgba(11, 21, 60, 1)"></circle><circle r="5" cx="647.07" cy="509.35" fill="rgba(11, 21, 60, 1)"></circle><circle r="5" cx="657.93" cy="699.14" fill="rgba(11, 21, 60, 1)"></circle><circle r="5" cx="812.38" cy="240.71" fill="rgba(11, 21, 60, 1)"></circle><circle r="5" cx="860.47" cy="397.11" fill="rgba(11, 21, 60, 1)"></circle><circle r="5" cx="802.01" cy="499.38" fill="rgba(11, 21, 60, 1)"></circle><circle r="5" cx="789.71" cy="658.79" fill="rgba(11, 21, 60, 1)"></circle><circle r="5" cx="1009.37" cy="-100.7" fill="rgba(11, 21, 60, 1)"></circle><circle r="5" cx="958.03" cy="52.11" fill="rgba(11, 21, 60, 1)"></circle><circle r="5" cx="969.54" cy="231.64" fill="rgba(11, 21, 60, 1)"></circle><circle r="5" cx="997.99" cy="364.38" fill="rgba(11, 21, 60, 1)"></circle><circle r="5" cx="947.1" cy="547.19" fill="rgba(11, 21, 60, 1)"></circle><circle r="5" cx="971.36" cy="689.81" fill="rgba(11, 21, 60, 1)"></circle><circle r="5" cx="1122.95" cy="-89.96" fill="rgba(11, 21, 60, 1)"></circle><circle r="5" cx="1130.06" cy="82.69" fill="rgba(11, 21, 60, 1)"></circle><circle r="5" cx="1135.61" cy="257.62" fill="rgba(11, 21, 60, 1)"></circle><circle r="5" cx="1152.53" cy="542.77" fill="rgba(11, 21, 60, 1)"></circle><circle r="5" cx="1160.71" cy="649.63" fill="rgba(11, 21, 60, 1)"></circle><circle r="5" cx="1286.43" cy="-72.94" fill="rgba(11, 21, 60, 1)"></circle><circle r="5" cx="1257.02" cy="76.95" fill="rgba(11, 21, 60, 1)"></circle><circle r="5" cx="1299.56" cy="210.69" fill="rgba(11, 21, 60, 1)"></circle><circle r="5" cx="1282.34" cy="376.9" fill="rgba(11, 21, 60, 1)"></circle><circle r="5" cx="1283.04" cy="521.29" fill="rgba(11, 21, 60, 1)"></circle><circle r="5" cx="1250.83" cy="652.27" fill="rgba(11, 21, 60, 1)"></circle><circle r="5" cx="1453.19" cy="-62.23" fill="rgba(11, 21, 60, 1)"></circle><circle r="5" cx="1400.69" cy="49.6" fill="rgba(11, 21, 60, 1)"></circle><circle r="5" cx="1462.03" cy="214.1" fill="rgba(11, 21, 60, 1)"></circle><circle r="5" cx="1406.47" cy="373.66" fill="rgba(11, 21, 60, 1)"></circle><circle r="5" cx="1388.02" cy="496.65" fill="rgba(11, 21, 60, 1)"></circle><circle r="5" cx="1456.68" cy="640.41" fill="rgba(11, 21, 60, 1)"></circle><circle r="5" cx="1588.09" cy="-45.75" fill="rgba(11, 21, 60, 1)"></circle><circle r="5" cx="1588.08" cy="70.64" fill="rgba(11, 21, 60, 1)"></circle><circle r="5" cx="1583.74" cy="238.41" fill="rgba(11, 21, 60, 1)"></circle><circle r="5" cx="1585.87" cy="384.95" fill="rgba(11, 21, 60, 1)"></circle><circle r="5" cx="1595" cy="544.29" fill="rgba(11, 21, 60, 1)"></circle><circle r="5" cx="1540.17" cy="643.33" fill="rgba(11, 21, 60, 1)"></circle><path d="M-48.11 499.23L-48.11 499.23" stroke="hsl(161.29999999999995, 79.1%, 83.6%)" stroke-width="1.5"></path><path d="M-48.11 499.23L91.85 492.37" stroke="hsl(161.29999999999995, 79.1%, 83.6%)" stroke-width="1.5"></path><path d="M-48.11 499.23L-83.52 661.69" stroke="hsl(161.29999999999995, 79.1%, 83.6%)" stroke-width="1.5"></path><path d="M-48.11 499.23L92.9 710.92" stroke="hsl(161.29999999999995, 79.1%, 83.6%)" stroke-width="1.5"></path><path d="M-48.11 499.23L240.73 536.44" stroke="hsl(161.29999999999995, 79.1%, 83.6%)" stroke-width="1.5"></path><path d="M-48.11 499.23L213.81 651.2" stroke="hsl(161.29999999999995, 79.1%, 83.6%)" stroke-width="1.5"></path><path d="M-48.11 499.23L381.8 505.55" stroke="hsl(161.29999999999995, 79.1%, 83.6%)" stroke-width="1.5"></path><path d="M-83.52 661.69L-83.52 661.69" stroke="hsl(161.29999999999995, 79.1%, 83.6%)" stroke-width="1.5"></path><path d="M-83.52 661.69L92.9 710.92" stroke="hsl(161.29999999999995, 79.1%, 83.6%)" stroke-width="1.5"></path><path d="M-83.52 661.69L91.85 492.37" stroke="hsl(161.29999999999995, 79.1%, 83.6%)" stroke-width="1.5"></path><path d="M-83.52 661.69L213.81 651.2" stroke="hsl(161.29999999999995, 79.1%, 83.6%)" stroke-width="1.5"></path><path d="M-83.52 661.69L240.73 536.44" stroke="hsl(161.29999999999995, 79.1%, 83.6%)" stroke-width="1.5"></path><path d="M646.62 542.07L646.62 542.07" stroke="hsl(161.29999999999995, 79.1%, 83.6%)" stroke-width="1.5"></path><path d="M646.62 542.07L638.69 639.31" stroke="hsl(161.29999999999995, 79.1%, 83.6%)" stroke-width="1.5"></path><path d="M646.62 542.07L691.14 398.81" stroke="hsl(161.29999999999995, 79.1%, 83.6%)" stroke-width="1.5"></path><path d="M646.62 542.07L496.34 491.01" stroke="hsl(161.29999999999995, 79.1%, 83.6%)" stroke-width="1.5"></path><path d="M646.62 542.07L789.55 657.43" stroke="hsl(161.29999999999995, 79.1%, 83.6%)" stroke-width="1.5"></path><path d="M646.62 542.07L845.1 531.91" stroke="hsl(161.29999999999995, 79.1%, 83.6%)" stroke-width="1.5"></path><path d="M839 343.42L839 343.42" stroke="hsl(161.29999999999995, 79.1%, 83.6%)" stroke-width="1.5"></path><path d="M839 343.42L961.81 376.85" stroke="hsl(161.29999999999995, 79.1%, 83.6%)" stroke-width="1.5"></path><path d="M839 343.42L691.14 398.81" stroke="hsl(161.29999999999995, 79.1%, 83.6%)" stroke-width="1.5"></path><path d="M789.55 657.43L789.55 657.43" stroke="hsl(161.29999999999995, 79.1%, 83.6%)" stroke-width="1.5"></path><path d="M789.55 657.43L845.1 531.91" stroke="hsl(161.29999999999995, 79.1%, 83.6%)" stroke-width="1.5"></path><path d="M789.55 657.43L638.69 639.31" stroke="hsl(161.29999999999995, 79.1%, 83.6%)" stroke-width="1.5"></path><path d="M789.55 657.43L967.24 667.77" stroke="hsl(161.29999999999995, 79.1%, 83.6%)" stroke-width="1.5"></path><path d="M789.55 657.43L998.31 506.26" stroke="hsl(161.29999999999995, 79.1%, 83.6%)" stroke-width="1.5"></path><path d="M967.24 667.77L967.24 667.77" stroke="hsl(161.29999999999995, 79.1%, 83.6%)" stroke-width="1.5"></path><path d="M967.24 667.77L1128.81 661.24" stroke="hsl(161.29999999999995, 79.1%, 83.6%)" stroke-width="1.5"></path><path d="M967.24 667.77L998.31 506.26" stroke="hsl(161.29999999999995, 79.1%, 83.6%)" stroke-width="1.5"></path><path d="M967.24 667.77L845.1 531.91" stroke="hsl(161.29999999999995, 79.1%, 83.6%)" stroke-width="1.5"></path><path d="M967.24 667.77L1096.4 499.15" stroke="hsl(161.29999999999995, 79.1%, 83.6%)" stroke-width="1.5"></path><path d="M1128.81 661.24L1128.81 661.24" stroke="hsl(161.29999999999995, 79.1%, 83.6%)" stroke-width="1.5"></path><path d="M1128.81 661.24L1096.4 499.15" stroke="hsl(161.29999999999995, 79.1%, 83.6%)" stroke-width="1.5"></path><path d="M1128.81 661.24L998.31 506.26" stroke="hsl(161.29999999999995, 79.1%, 83.6%)" stroke-width="1.5"></path><path d="M1270.64 504.01L1270.64 504.01" stroke="hsl(161.29999999999995, 79.1%, 83.6%)" stroke-width="1.5"></path><path d="M1270.64 504.01L1423.03 527.64" stroke="hsl(161.29999999999995, 79.1%, 83.6%)" stroke-width="1.5"></path><path d="M1270.64 504.01L1136.76 408.11" stroke="hsl(161.29999999999995, 79.1%, 83.6%)" stroke-width="1.5"></path><path d="M1270.64 504.01L1096.4 499.15" stroke="hsl(161.29999999999995, 79.1%, 83.6%)" stroke-width="1.5"></path><path d="M1270.64 504.01L1456.4 409.58" stroke="hsl(161.29999999999995, 79.1%, 83.6%)" stroke-width="1.5"></path><path d="M1270.64 504.01L1128.81 661.24" stroke="hsl(161.29999999999995, 79.1%, 83.6%)" stroke-width="1.5"></path><path d="M1270.64 504.01L1433.77 710.8" stroke="hsl(161.29999999999995, 79.1%, 83.6%)" stroke-width="1.5"></path><path d="M1419.23 -83.58L1419.23 -83.58" stroke="hsl(161.29999999999995, 79.1%, 83.6%)" stroke-width="1.5"></path><path d="M1419.23 -83.58L1418.53 90.83" stroke="hsl(161.29999999999995, 79.1%, 83.6%)" stroke-width="1.5"></path><path d="M1419.23 -83.58L1596.24 -44.23" stroke="hsl(161.29999999999995, 79.1%, 83.6%)" stroke-width="1.5"></path><path d="M1419.23 -83.58L1309.69 107.67" stroke="hsl(161.29999999999995, 79.1%, 83.6%)" stroke-width="1.5"></path><path d="M1419.23 -83.58L1417.74 220.4" stroke="hsl(161.29999999999995, 79.1%, 83.6%)" stroke-width="1.5"></path><path d="M1419.23 -83.58L1260.73 216.79" stroke="hsl(161.29999999999995, 79.1%, 83.6%)" stroke-width="1.5"></path><path d="M1419.23 -83.58L1562.33 235.05" stroke="hsl(161.29999999999995, 79.1%, 83.6%)" stroke-width="1.5"></path><path d="M1456.4 409.58L1456.4 409.58" stroke="hsl(161.29999999999995, 79.1%, 83.6%)" stroke-width="1.5"></path><path d="M1456.4 409.58L1423.03 527.64" stroke="hsl(161.29999999999995, 79.1%, 83.6%)" stroke-width="1.5"></path><path d="M1456.4 409.58L1417.74 220.4" stroke="hsl(161.29999999999995, 79.1%, 83.6%)" stroke-width="1.5"></path><path d="M1456.4 409.58L1562.33 235.05" stroke="hsl(161.29999999999995, 79.1%, 83.6%)" stroke-width="1.5"></path><path d="M1456.4 409.58L1565.28 654.7" stroke="hsl(161.29999999999995, 79.1%, 83.6%)" stroke-width="1.5"></path><path d="M91.85 492.37L91.85 492.37" stroke="hsl(161.29999999999995, 79.1%, 83.6%)" stroke-width="1.5"></path><path d="M91.85 492.37L240.73 536.44" stroke="hsl(161.29999999999995, 79.1%, 83.6%)" stroke-width="1.5"></path><path d="M91.85 492.37L213.81 651.2" stroke="hsl(161.29999999999995, 79.1%, 83.6%)" stroke-width="1.5"></path><path d="M91.85 492.37L92.9 710.92" stroke="hsl(161.29999999999995, 79.1%, 83.6%)" stroke-width="1.5"></path><path d="M92.9 710.92L92.9 710.92" stroke="hsl(161.29999999999995, 79.1%, 83.6%)" stroke-width="1.5"></path><path d="M92.9 710.92L213.81 651.2" stroke="hsl(161.29999999999995, 79.1%, 83.6%)" stroke-width="1.5"></path><path d="M92.9 710.92L240.73 536.44" stroke="hsl(161.29999999999995, 79.1%, 83.6%)" stroke-width="1.5"></path><path d="M92.9 710.92L381.8 505.55" stroke="hsl(161.29999999999995, 79.1%, 83.6%)" stroke-width="1.5"></path><path d="M240.73 536.44L240.73 536.44" stroke="hsl(161.29999999999995, 79.1%, 83.6%)" stroke-width="1.5"></path><path d="M240.73 536.44L213.81 651.2" stroke="hsl(161.29999999999995, 79.1%, 83.6%)" stroke-width="1.5"></path><path d="M240.73 536.44L381.8 505.55" stroke="hsl(161.29999999999995, 79.1%, 83.6%)" stroke-width="1.5"></path><path d="M213.81 651.2L213.81 651.2" stroke="hsl(161.29999999999995, 79.1%, 83.6%)" stroke-width="1.5"></path><path d="M381.8 505.55L381.8 505.55" stroke="hsl(161.29999999999995, 79.1%, 83.6%)" stroke-width="1.5"></path><path d="M381.8 505.55L496.34 491.01" stroke="hsl(161.29999999999995, 79.1%, 83.6%)" stroke-width="1.5"></path><path d="M381.8 505.55L213.81 651.2" stroke="hsl(161.29999999999995, 79.1%, 83.6%)" stroke-width="1.5"></path><path d="M381.8 505.55L504.82 708.9" stroke="hsl(161.29999999999995, 79.1%, 83.6%)" stroke-width="1.5"></path><path d="M496.34 491.01L496.34 491.01" stroke="hsl(161.29999999999995, 79.1%, 83.6%)" stroke-width="1.5"></path><path d="M496.34 491.01L638.69 639.31" stroke="hsl(161.29999999999995, 79.1%, 83.6%)" stroke-width="1.5"></path><path d="M496.34 491.01L691.14 398.81" stroke="hsl(161.29999999999995, 79.1%, 83.6%)" stroke-width="1.5"></path><path d="M496.34 491.01L504.82 708.9" stroke="hsl(161.29999999999995, 79.1%, 83.6%)" stroke-width="1.5"></path><path d="M496.34 491.01L240.73 536.44" stroke="hsl(161.29999999999995, 79.1%, 83.6%)" stroke-width="1.5"></path><path d="M504.82 708.9L504.82 708.9" stroke="hsl(161.29999999999995, 79.1%, 83.6%)" stroke-width="1.5"></path><path d="M504.82 708.9L638.69 639.31" stroke="hsl(161.29999999999995, 79.1%, 83.6%)" stroke-width="1.5"></path><path d="M691.14 398.81L691.14 398.81" stroke="hsl(161.29999999999995, 79.1%, 83.6%)" stroke-width="1.5"></path><path d="M638.69 639.31L638.69 639.31" stroke="hsl(161.29999999999995, 79.1%, 83.6%)" stroke-width="1.5"></path><path d="M845.1 531.91L845.1 531.91" stroke="hsl(161.29999999999995, 79.1%, 83.6%)" stroke-width="1.5"></path><path d="M845.1 531.91L998.31 506.26" stroke="hsl(161.29999999999995, 79.1%, 83.6%)" stroke-width="1.5"></path><path d="M845.1 531.91L839 343.42" stroke="hsl(161.29999999999995, 79.1%, 83.6%)" stroke-width="1.5"></path><path d="M845.1 531.91L961.81 376.85" stroke="hsl(161.29999999999995, 79.1%, 83.6%)" stroke-width="1.5"></path><path d="M961.81 376.85L961.81 376.85" stroke="hsl(161.29999999999995, 79.1%, 83.6%)" stroke-width="1.5"></path><path d="M961.81 376.85L998.31 506.26" stroke="hsl(161.29999999999995, 79.1%, 83.6%)" stroke-width="1.5"></path><path d="M961.81 376.85L1136.76 408.11" stroke="hsl(161.29999999999995, 79.1%, 83.6%)" stroke-width="1.5"></path><path d="M961.81 376.85L1096.4 499.15" stroke="hsl(161.29999999999995, 79.1%, 83.6%)" stroke-width="1.5"></path><path d="M998.31 506.26L998.31 506.26" stroke="hsl(161.29999999999995, 79.1%, 83.6%)" stroke-width="1.5"></path><path d="M998.31 506.26L1096.4 499.15" stroke="hsl(161.29999999999995, 79.1%, 83.6%)" stroke-width="1.5"></path><path d="M998.31 506.26L1136.76 408.11" stroke="hsl(161.29999999999995, 79.1%, 83.6%)" stroke-width="1.5"></path><path d="M1130.19 198.19L1130.19 198.19" stroke="hsl(161.29999999999995, 79.1%, 83.6%)" stroke-width="1.5"></path><path d="M1130.19 198.19L1260.73 216.79" stroke="hsl(161.29999999999995, 79.1%, 83.6%)" stroke-width="1.5"></path><path d="M1130.19 198.19L1309.69 107.67" stroke="hsl(161.29999999999995, 79.1%, 83.6%)" stroke-width="1.5"></path><path d="M1136.76 408.11L1136.76 408.11" stroke="hsl(161.29999999999995, 79.1%, 83.6%)" stroke-width="1.5"></path><path d="M1136.76 408.11L1096.4 499.15" stroke="hsl(161.29999999999995, 79.1%, 83.6%)" stroke-width="1.5"></path><path d="M1136.76 408.11L1130.19 198.19" stroke="hsl(161.29999999999995, 79.1%, 83.6%)" stroke-width="1.5"></path><path d="M1096.4 499.15L1096.4 499.15" stroke="hsl(161.29999999999995, 79.1%, 83.6%)" stroke-width="1.5"></path><path d="M1309.69 107.67L1309.69 107.67" stroke="hsl(161.29999999999995, 79.1%, 83.6%)" stroke-width="1.5"></path><path d="M1309.69 107.67L1418.53 90.83" stroke="hsl(161.29999999999995, 79.1%, 83.6%)" stroke-width="1.5"></path><path d="M1309.69 107.67L1260.73 216.79" stroke="hsl(161.29999999999995, 79.1%, 83.6%)" stroke-width="1.5"></path><path d="M1309.69 107.67L1417.74 220.4" stroke="hsl(161.29999999999995, 79.1%, 83.6%)" stroke-width="1.5"></path><path d="M1260.73 216.79L1260.73 216.79" stroke="hsl(161.29999999999995, 79.1%, 83.6%)" stroke-width="1.5"></path><path d="M1260.73 216.79L1417.74 220.4" stroke="hsl(161.29999999999995, 79.1%, 83.6%)" stroke-width="1.5"></path><path d="M1260.73 216.79L1418.53 90.83" stroke="hsl(161.29999999999995, 79.1%, 83.6%)" stroke-width="1.5"></path><path d="M1418.53 90.83L1418.53 90.83" stroke="hsl(161.29999999999995, 79.1%, 83.6%)" stroke-width="1.5"></path><path d="M1418.53 90.83L1417.74 220.4" stroke="hsl(161.29999999999995, 79.1%, 83.6%)" stroke-width="1.5"></path><path d="M1418.53 90.83L1562.33 235.05" stroke="hsl(161.29999999999995, 79.1%, 83.6%)" stroke-width="1.5"></path><path d="M1418.53 90.83L1596.24 -44.23" stroke="hsl(161.29999999999995, 79.1%, 83.6%)" stroke-width="1.5"></path><path d="M1417.74 220.4L1417.74 220.4" stroke="hsl(161.29999999999995, 79.1%, 83.6%)" stroke-width="1.5"></path><path d="M1417.74 220.4L1562.33 235.05" stroke="hsl(161.29999999999995, 79.1%, 83.6%)" stroke-width="1.5"></path><path d="M1423.03 527.64L1423.03 527.64" stroke="hsl(161.29999999999995, 79.1%, 83.6%)" stroke-width="1.5"></path><path d="M1433.77 710.8L1433.77 710.8" stroke="hsl(161.29999999999995, 79.1%, 83.6%)" stroke-width="1.5"></path><path d="M1433.77 710.8L1565.28 654.7" stroke="hsl(161.29999999999995, 79.1%, 83.6%)" stroke-width="1.5"></path><path d="M1433.77 710.8L1423.03 527.64" stroke="hsl(161.29999999999995, 79.1%, 83.6%)" stroke-width="1.5"></path><path d="M1596.24 -44.23L1596.24 -44.23" stroke="hsl(161.29999999999995, 79.1%, 83.6%)" stroke-width="1.5"></path><path d="M1596.24 -44.23L1562.33 235.05" stroke="hsl(161.29999999999995, 79.1%, 83.6%)" stroke-width="1.5"></path><path d="M1596.24 -44.23L1417.74 220.4" stroke="hsl(161.29999999999995, 79.1%, 83.6%)" stroke-width="1.5"></path><path d="M1596.24 -44.23L1309.69 107.67" stroke="hsl(161.29999999999995, 79.1%, 83.6%)" stroke-width="1.5"></path><path d="M1562.33 235.05L1562.33 235.05" stroke="hsl(161.29999999999995, 79.1%, 83.6%)" stroke-width="1.5"></path><path d="M1562.33 235.05L1309.69 107.67" stroke="hsl(161.29999999999995, 79.1%, 83.6%)" stroke-width="1.5"></path><path d="M1562.33 235.05L1260.73 216.79" stroke="hsl(161.29999999999995, 79.1%, 83.6%)" stroke-width="1.5"></path><path d="M1565.28 654.7L1565.28 654.7" stroke="hsl(161.29999999999995, 79.1%, 83.6%)" stroke-width="1.5"></path><path d="M1565.28 654.7L1423.03 527.64" stroke="hsl(161.29999999999995, 79.1%, 83.6%)" stroke-width="1.5"></path><circle r="25" cx="-48.11" cy="499.23" fill="url(#SvgjsRadialGradient1007)"></circle><circle r="25" cx="-83.52" cy="661.69" fill="url(#SvgjsRadialGradient1007)"></circle><circle r="25" cx="646.62" cy="542.07" fill="url(#SvgjsRadialGradient1007)"></circle><circle r="25" cx="839" cy="343.42" fill="url(#SvgjsRadialGradient1007)"></circle><circle r="25" cx="789.55" cy="657.43" fill="url(#SvgjsRadialGradient1007)"></circle><circle r="25" cx="967.24" cy="667.77" fill="url(#SvgjsRadialGradient1007)"></circle><circle r="25" cx="1128.81" cy="661.24" fill="url(#SvgjsRadialGradient1007)"></circle><circle r="25" cx="1270.64" cy="504.01" fill="url(#SvgjsRadialGradient1007)"></circle><circle r="25" cx="1419.23" cy="-83.58" fill="url(#SvgjsRadialGradient1007)"></circle><circle r="25" cx="1456.4" cy="409.58" fill="url(#SvgjsRadialGradient1007)"></circle><circle r="5" cx="91.85" cy="492.37" fill="#aef6df"></circle><circle r="5" cx="92.9" cy="710.92" fill="#aef6df"></circle><circle r="5" cx="240.73" cy="536.44" fill="#aef6df"></circle><circle r="5" cx="213.81" cy="651.2" fill="#aef6df"></circle><circle r="5" cx="381.8" cy="505.55" fill="#aef6df"></circle><circle r="5" cx="496.34" cy="491.01" fill="#aef6df"></circle><circle r="5" cx="504.82" cy="708.9" fill="#aef6df"></circle><circle r="5" cx="691.14" cy="398.81" fill="#aef6df"></circle><circle r="5" cx="638.69" cy="639.31" fill="#aef6df"></circle><circle r="5" cx="845.1" cy="531.91" fill="#aef6df"></circle><circle r="5" cx="961.81" cy="376.85" fill="#aef6df"></circle><circle r="5" cx="998.31" cy="506.26" fill="#aef6df"></circle><circle r="5" cx="1130.19" cy="198.19" fill="#aef6df"></circle><circle r="5" cx="1136.76" cy="408.11" fill="#aef6df"></circle><circle r="5" cx="1096.4" cy="499.15" fill="#aef6df"></circle><circle r="5" cx="1309.69" cy="107.67" fill="#aef6df"></circle><circle r="5" cx="1260.73" cy="216.79" fill="#aef6df"></circle><circle r="5" cx="1418.53" cy="90.83" fill="#aef6df"></circle><circle r="5" cx="1417.74" cy="220.4" fill="#aef6df"></circle><circle r="5" cx="1423.03" cy="527.64" fill="#aef6df"></circle><circle r="5" cx="1433.77" cy="710.8" fill="#aef6df"></circle><circle r="5" cx="1596.24" cy="-44.23" fill="#aef6df"></circle><circle r="5" cx="1562.33" cy="235.05" fill="#aef6df"></circle><circle r="5" cx="1565.28" cy="654.7" fill="#aef6df"></circle></g><defs><mask id="SvgjsMask1006"><rect width="1440" height="560" fill="#ffffff"></rect></mask><radialGradient id="SvgjsRadialGradient1007"><stop stop-color="#ffffff" offset="0.1"></stop><stop stop-color="rgba(92, 236, 191, 1)" offset="0.2"></stop><stop stop-color="rgba(92, 236, 191, 0)" offset="1"></stop></radialGradient></defs></svg>